<mxfile host="app.diagrams.net" modified="2023-05-06T20:08:41.329Z" agent="Mozilla/5.0 (Windows NT 10.0; Win64; x64; rv:109.0) Gecko/20100101 Firefox/112.0" etag="7Q4pa5P4fbb6YRzBa5fn" version="21.2.9" type="github">
  <diagram name="Page-1" id="WP3BwamqJulru8dz5ZMr">
    <mxGraphModel dx="1562" dy="787" grid="1" gridSize="10" guides="1" tooltips="1" connect="1" arrows="1" fold="1" page="1" pageScale="1" pageWidth="850" pageHeight="1100" math="0" shadow="0">
      <root>
        <mxCell id="0" />
        <mxCell id="1" parent="0" />
        <mxCell id="mn-Nwsw4VFY75lWRclIA-1" value="Начало" style="ellipse;whiteSpace=wrap;html=1;aspect=fixed;" parent="1" vertex="1">
          <mxGeometry x="395" y="14" width="60" height="60" as="geometry" />
        </mxCell>
        <mxCell id="mn-Nwsw4VFY75lWRclIA-2" value="" style="shape=flexArrow;endArrow=classic;html=1;rounded=0;" parent="1" edge="1">
          <mxGeometry width="50" height="50" relative="1" as="geometry">
            <mxPoint x="425" y="74" as="sourcePoint" />
            <mxPoint x="425" y="134" as="targetPoint" />
          </mxGeometry>
        </mxCell>
        <mxCell id="mn-Nwsw4VFY75lWRclIA-6" value="" style="edgeStyle=orthogonalEdgeStyle;rounded=0;orthogonalLoop=1;jettySize=auto;html=1;" parent="1" source="mn-Nwsw4VFY75lWRclIA-3" target="mn-Nwsw4VFY75lWRclIA-4" edge="1">
          <mxGeometry relative="1" as="geometry" />
        </mxCell>
        <mxCell id="mn-Nwsw4VFY75lWRclIA-3" value="Объявление A, B, C" style="rounded=1;whiteSpace=wrap;html=1;" parent="1" vertex="1">
          <mxGeometry x="368" y="134" width="120" height="60" as="geometry" />
        </mxCell>
        <mxCell id="mn-Nwsw4VFY75lWRclIA-10" value="True" style="edgeStyle=orthogonalEdgeStyle;rounded=0;orthogonalLoop=1;jettySize=auto;html=1;" parent="1" source="mn-Nwsw4VFY75lWRclIA-4" target="mn-Nwsw4VFY75lWRclIA-17" edge="1">
          <mxGeometry relative="1" as="geometry">
            <mxPoint x="328" y="274" as="targetPoint" />
          </mxGeometry>
        </mxCell>
        <mxCell id="mn-Nwsw4VFY75lWRclIA-12" value="False" style="edgeStyle=orthogonalEdgeStyle;rounded=0;orthogonalLoop=1;jettySize=auto;html=1;" parent="1" source="mn-Nwsw4VFY75lWRclIA-4" target="mn-Nwsw4VFY75lWRclIA-16" edge="1">
          <mxGeometry relative="1" as="geometry">
            <mxPoint x="528" y="274" as="targetPoint" />
          </mxGeometry>
        </mxCell>
        <mxCell id="mn-Nwsw4VFY75lWRclIA-4" value="A &amp;gt; B" style="rhombus;whiteSpace=wrap;html=1;" parent="1" vertex="1">
          <mxGeometry x="388" y="234" width="80" height="80" as="geometry" />
        </mxCell>
        <mxCell id="mn-Nwsw4VFY75lWRclIA-29" value="" style="edgeStyle=orthogonalEdgeStyle;rounded=0;orthogonalLoop=1;jettySize=auto;html=1;" parent="1" source="mn-Nwsw4VFY75lWRclIA-16" target="mn-Nwsw4VFY75lWRclIA-28" edge="1">
          <mxGeometry relative="1" as="geometry" />
        </mxCell>
        <mxCell id="mn-Nwsw4VFY75lWRclIA-31" value="False" style="edgeStyle=orthogonalEdgeStyle;rounded=0;orthogonalLoop=1;jettySize=auto;html=1;entryX=1;entryY=0.5;entryDx=0;entryDy=0;" parent="1" source="mn-Nwsw4VFY75lWRclIA-16" target="mn-Nwsw4VFY75lWRclIA-21" edge="1">
          <mxGeometry x="0.0049" relative="1" as="geometry">
            <mxPoint x="583" y="374" as="targetPoint" />
            <Array as="points">
              <mxPoint x="583" y="404" />
            </Array>
            <mxPoint as="offset" />
          </mxGeometry>
        </mxCell>
        <mxCell id="mn-Nwsw4VFY75lWRclIA-16" value="B &amp;gt; C" style="rhombus;whiteSpace=wrap;html=1;" parent="1" vertex="1">
          <mxGeometry x="543" y="234" width="80" height="80" as="geometry" />
        </mxCell>
        <mxCell id="mn-Nwsw4VFY75lWRclIA-20" value="True" style="edgeStyle=orthogonalEdgeStyle;rounded=0;orthogonalLoop=1;jettySize=auto;html=1;" parent="1" source="mn-Nwsw4VFY75lWRclIA-17" target="mn-Nwsw4VFY75lWRclIA-19" edge="1">
          <mxGeometry relative="1" as="geometry" />
        </mxCell>
        <mxCell id="mn-Nwsw4VFY75lWRclIA-22" value="False" style="edgeStyle=orthogonalEdgeStyle;rounded=0;orthogonalLoop=1;jettySize=auto;html=1;" parent="1" source="mn-Nwsw4VFY75lWRclIA-17" target="mn-Nwsw4VFY75lWRclIA-21" edge="1">
          <mxGeometry relative="1" as="geometry">
            <Array as="points">
              <mxPoint x="253" y="404" />
            </Array>
          </mxGeometry>
        </mxCell>
        <mxCell id="mn-Nwsw4VFY75lWRclIA-17" value="A &amp;gt; C" style="rhombus;whiteSpace=wrap;html=1;" parent="1" vertex="1">
          <mxGeometry x="213" y="234" width="80" height="80" as="geometry" />
        </mxCell>
        <mxCell id="mn-Nwsw4VFY75lWRclIA-19" value="Print A" style="whiteSpace=wrap;html=1;" parent="1" vertex="1">
          <mxGeometry x="33" y="244" width="120" height="60" as="geometry" />
        </mxCell>
        <mxCell id="ciIs_JlLif6HJy_qq_9C-4" style="edgeStyle=orthogonalEdgeStyle;rounded=0;orthogonalLoop=1;jettySize=auto;html=1;exitX=0.5;exitY=1;exitDx=0;exitDy=0;entryX=0.5;entryY=0;entryDx=0;entryDy=0;" edge="1" parent="1" source="mn-Nwsw4VFY75lWRclIA-21" target="mn-Nwsw4VFY75lWRclIA-25">
          <mxGeometry relative="1" as="geometry" />
        </mxCell>
        <mxCell id="mn-Nwsw4VFY75lWRclIA-21" value="Print C" style="whiteSpace=wrap;html=1;" parent="1" vertex="1">
          <mxGeometry x="368" y="374" width="120" height="60" as="geometry" />
        </mxCell>
        <mxCell id="mn-Nwsw4VFY75lWRclIA-25" value="Конец" style="ellipse;whiteSpace=wrap;html=1;aspect=fixed;" parent="1" vertex="1">
          <mxGeometry x="388" y="574" width="80" height="80" as="geometry" />
        </mxCell>
        <mxCell id="mn-Nwsw4VFY75lWRclIA-28" value="Print B" style="whiteSpace=wrap;html=1;" parent="1" vertex="1">
          <mxGeometry x="683" y="244" width="120" height="60" as="geometry" />
        </mxCell>
        <mxCell id="mn-Nwsw4VFY75lWRclIA-35" value="" style="endArrow=classic;html=1;rounded=0;exitX=0.5;exitY=1;exitDx=0;exitDy=0;entryX=1;entryY=0.5;entryDx=0;entryDy=0;" parent="1" source="mn-Nwsw4VFY75lWRclIA-28" target="mn-Nwsw4VFY75lWRclIA-25" edge="1">
          <mxGeometry width="50" height="50" relative="1" as="geometry">
            <mxPoint x="433" y="334" as="sourcePoint" />
            <mxPoint x="483" y="284" as="targetPoint" />
            <Array as="points">
              <mxPoint x="743" y="614" />
            </Array>
          </mxGeometry>
        </mxCell>
        <mxCell id="ciIs_JlLif6HJy_qq_9C-2" value="" style="endArrow=classic;html=1;rounded=0;exitX=0.5;exitY=1;exitDx=0;exitDy=0;entryX=0;entryY=0.5;entryDx=0;entryDy=0;" edge="1" parent="1" source="mn-Nwsw4VFY75lWRclIA-19" target="mn-Nwsw4VFY75lWRclIA-25">
          <mxGeometry width="50" height="50" relative="1" as="geometry">
            <mxPoint x="400" y="410" as="sourcePoint" />
            <mxPoint x="450" y="360" as="targetPoint" />
            <Array as="points">
              <mxPoint x="93" y="614" />
            </Array>
          </mxGeometry>
        </mxCell>
      </root>
    </mxGraphModel>
  </diagram>
</mxfile>
